{"title":"Very Sexy Ballet (1988)","uid":10542321,"size":791752682,"categoryP":"porn","categoryS":"hd___movies","magnet":"?xt=urn:btih:0edc381c4954729ca7d301d6ec8dda32e72eaed1&amp;dn=Very+Sexy+Ballet+%281988%29&amp;tr=udp%3A%2F%2Ftracker.openbittorrent.com%3A80&amp;tr=udp%3A%2F%2Fopen.demonii.com%3A1337&amp;tr=udp%3A%2F%2Ftracker.coppersurfer.tk%3A6969&amp;tr=udp%3A%2F%2Fexodus.desync.com%3A6969","seeders":5,"leechers":0,"uploader":"rikiry002","files":1,"time":1405243174,"description":"Screens &lt;a href=&quot;\nhttp://imgextra.biz/viewer.php?file=u945lp3m897ntaf6wyo.png&quot; rel=&quot;nofollow&quot; target=&quot;_NEW&quot;&gt;\nhttp://imgextra.biz/viewer.php?file=u945lp3m897ntaf6wyo.png&lt;/a&gt; &lt;a href=&quot;\nhttp://imgextra.biz/viewer.php?file=bo6vddmwd5mdxph5ekvd.png&quot; rel=&quot;nofollow&quot; target=&quot;_NEW&quot;&gt;\nhttp://imgextra.biz/viewer.php?file=bo6vddmwd5mdxph5ekvd.png&lt;/a&gt; &lt;a href=&quot;\nhttp://imgextra.biz/viewer.php?file=vvlkiftpn91zi61xars.png&quot; rel=&quot;nofollow&quot; target=&quot;_NEW&quot;&gt;\nhttp://imgextra.biz/viewer.php?file=vvlkiftpn91zi61xars.png&lt;/a&gt; &lt;a href=&quot;\nhttp://imgextra.biz/viewer.php?file=a8iabf0swhn0p25khlg.png&quot; rel=&quot;nofollow&quot; target=&quot;_NEW&quot;&gt;\nhttp://imgextra.biz/viewer.php?file=a8iabf0swhn0p25khlg.png&lt;/a&gt;\n\nCast\n\nYear: 1988\nSize:  792 MB (1:28:12)\nJohn Stagliano\nProducer: John Stagliano\nStudio: Caballero\nFormat:  AVI\nPerformers: Porsche Lynn, Stephanie Rage, Tawni Lee, Delia Moore,\nValentina, John Stagliano, Delia Moore, Scott Irish, Buddy Love,\nDave Bolden, John Wright, Blake Palmer, Dolores Deluce\nMusic: John Further; Makeup: Diane Gibson; Camera: Jane Waters\nLighting: Greg Barkhurst\n\nGeneral\nComplete name                            : C:UsersAdministratorDownloadsVery Sexy Ballet (1988).avi\nFormat                                   : AVI\nFormat/Info                              : Audio Video Interleave\nFile size                                : 755 MiB\nDuration                                 : 1h 28mn\nOverall bit rate                         : 1 197 Kbps\nWriting library                          : VirtualDub-MPEG2 build 24417/release\n\nVideo\nID                                       : 0\nFormat                                   : MPEG-4 Visual\nFormat settings, BVOP                    : 1\nFormat settings, QPel                    : No\nFormat settings, GMC                     : No warppoints\nFormat settings, Matrix                  : Default (H.263)\nMuxing mode                              : Packed bitstream\nCodec ID                                 : DX50\nCodec ID/Hint                            : DivX 5\nDuration                                 : 1h 28mn\nBit rate                                 : 1 059 Kbps\nWidth                                    : 720 pixels\nHeight                                   : 480 pixels\nDisplay aspect ratio                     : 3:2\nFrame rate                               : 23.976 fps\nStandard                                 : NTSC\nColor space                              : YUV\nChroma subsampling                       : 4:2:0\nBit depth                                : 8 bits\nScan type                                : Progressive\nCompression mode                         : Lossy\nBits/(Pixel*Frame)                       : 0.128\nStream size                              : 668 MiB (89%)\nWriting library                          : DivX 5.2.1 (WaffleDay) (UTC 2004-09-08)\n\nAudio\nID                                       : 1\nFormat                                   : MPEG Audio\nFormat version                           : Version 1\nFormat profile                           : Layer 3\nMode                                     : Joint stereo\nMode extension                           : MS Stereo\nCodec ID                                 : 55\nCodec ID/Hint                            : MP3\nDuration                                 : 1h 28mn\nBit rate mode                            : Constant\nBit rate                                 : 128 Kbps\nChannel(s)                               : 2 channels\nSampling rate                            : 44.1 KHz\nCompression mode                         : Lossy\nStream size                              : 80.8 MiB (11%)\nAlignment                                : Split accross interleaves\nInterleave, duration                     : 41 ms (0.99 video frame)\nInterleave, preload duration             : 500 ms","torrent":{"xt":"urn:btih:0edc381c4954729ca7d301d6ec8dda32e72eaed1","amp;dn":"Very+Sexy+Ballet+%281988%29","amp;tr":["udp%3A%2F%2Ftracker.openbittorrent.com%3A80","udp%3A%2F%2Fopen.demonii.com%3A1337","udp%3A%2F%2Ftracker.coppersurfer.tk%3A6969","udp%3A%2F%2Fexodus.desync.com%3A6969"],"infoHash":"0edc381c4954729ca7d301d6ec8dda32e72eaed1","infoHashBuffer":{"type":"Buffer","data":[14,220,56,28,73,84,114,156,167,211,1,214,236,141,218,50,231,46,174,209]},"announce":[],"urlList":[]}}